<?xml version="1.0" encoding="UTF-8"?>
<!DOCTYPE svg PUBLIC "-//W3C//DTD SVG 1.1//EN" "http://www.w3.org/Graphics/SVG/1.1/DTD/svg11.dtd">
<svg xmlns="http://www.w3.org/2000/svg" version="1.1" width="1119px" height="952px" style="shape-rendering:geometricPrecision; text-rendering:geometricPrecision; image-rendering:optimizeQuality; fill-rule:evenodd; clip-rule:evenodd" xmlns:xlink="http://www.w3.org/1999/xlink">
<g><path style="opacity:0.95" fill="#4c7e46" d="M 461.5,-0.5 C 462.167,-0.5 462.833,-0.5 463.5,-0.5C 599.294,37.6185 735.294,75.4518 871.5,113C 878.747,123.939 879.247,135.106 873,146.5C 871.062,149.106 868.562,150.939 865.5,152C 851.302,156.966 836.968,161.466 822.5,165.5C 821.5,197.493 821.167,229.493 821.5,261.5C 838.57,265.402 849.737,275.735 855,292.5C 857.865,304.613 856.365,316.113 850.5,327C 859.3,355 862.634,383.666 860.5,413C 870.718,444.608 860.051,463.941 828.5,471C 807.276,472.814 788.776,466.647 773,452.5C 771.709,427.673 770.542,402.84 769.5,378C 769.612,362.161 771.945,346.661 776.5,331.5C 762.477,306.536 766.477,285.036 788.5,267C 793.19,264.271 798.19,262.437 803.5,261.5C 803.667,231.165 803.5,200.832 803,170.5C 776.617,177.888 750.117,184.888 723.5,191.5C 723.831,245.072 723.497,298.572 722.5,352C 659.711,393.154 590.711,416.82 515.5,423C 430.844,429.068 349.51,415.402 271.5,382C 250.647,373.24 230.314,363.407 210.5,352.5C 209.5,296.504 209.167,240.504 209.5,184.5C 162.44,172.648 115.44,160.482 68.5,148C 52.8439,138.74 51.5106,127.74 64.5,115C 72.9011,111.395 81.5677,108.395 90.5,106C 214.419,70.9412 338.086,35.4412 461.5,-0.5 Z M 459.5,18.5 C 464.27,18.6917 468.937,19.5251 473.5,21C 602.047,57.017 730.714,92.517 859.5,127.5C 859.988,130.711 859.321,133.544 857.5,136C 842.636,141.401 827.47,145.568 812,148.5C 696.843,137.334 581.676,126.334 466.5,115.5C 466.093,121.161 465.76,126.828 465.5,132.5C 566.136,142.482 666.803,152.316 767.5,162C 669.887,187.362 572.054,211.862 474,235.5C 340.658,201.04 207.491,166.04 74.5,130.5C 75.3805,129.029 76.7139,128.196 78.5,128C 205.7,91.7612 332.7,55.2612 459.5,18.5 Z M 227.5,189.5 C 309.395,211.141 391.395,232.474 473.5,253.5C 550.995,235.126 628.328,216.126 705.5,196.5C 705.667,213.17 705.5,229.837 705,246.5C 594.805,308.576 477.972,325.409 354.5,297C 309.784,286.386 267.618,269.553 228,246.5C 227.5,227.503 227.333,208.503 227.5,189.5 Z M 227.5,268.5 C 344.663,328.811 467.329,343.311 595.5,312C 633.727,301.802 670.227,287.302 705,268.5C 705.833,293.173 705.666,317.84 704.5,342.5C 647.86,377.769 586.194,398.603 519.5,405C 434.387,411.981 352.72,398.314 274.5,364C 258.924,357.212 243.59,349.879 228.5,342C 227.506,317.575 227.172,293.075 227.5,268.5 Z M 811.5,277.5 C 834.155,281.332 842.322,294.332 836,316.5C 826.643,330.916 814.143,334.416 798.5,327C 784.586,315.763 782.419,302.596 792,287.5C 797.433,281.868 803.933,278.535 811.5,277.5 Z M 835.5,341.5 C 837.751,346.145 839.251,351.145 840,356.5C 841.575,365.435 842.575,374.435 843,383.5C 843.667,403.833 843.667,424.167 843,444.5C 831.534,454.494 818.701,456.661 804.5,451C 799.476,449.137 794.809,446.637 790.5,443.5C 787.725,414.186 787.225,384.853 789,355.5C 789.622,351.388 790.622,347.388 792,343.5C 802.374,348.564 813.207,349.73 824.5,347C 828.613,345.812 832.28,343.979 835.5,341.5 Z"/></g>
<g><path style="opacity:0.95" fill="#4c7e46" d="M 173.5,429.5 C 333.471,432.916 493.471,435.75 653.5,438C 720.624,495.098 787.457,552.264 854,609.5C 854.667,613.167 854.667,616.833 854,620.5C 845.492,642.141 843.159,664.474 847,687.5C 849.351,698.568 851.851,709.568 854.5,720.5C 854.623,725.261 853.29,729.594 850.5,733.5C 851.6,737.442 851.767,741.442 851,745.5C 843.58,765.608 841.58,786.274 845,807.5C 847.386,820.043 850.552,832.377 854.5,844.5C 853.904,853.56 849.237,859.06 840.5,861C 690.5,861.667 540.5,861.667 390.5,861C 313.674,807.42 236.674,754.087 159.5,701C 133.051,666.801 127.218,629.301 142,588.5C 145.263,581.639 148.763,574.972 152.5,568.5C 126.885,521.753 130.385,477.42 163,435.5C 166.069,432.554 169.569,430.554 173.5,429.5 Z M 184.5,449.5 C 193.494,448.834 202.66,448.5 212,448.5C 356.843,450.599 501.676,453.099 646.5,456C 702.352,503.096 758.019,550.429 813.5,598C 674.833,598.667 536.167,598.667 397.5,598C 327.141,547.495 256.141,497.995 184.5,449.5 Z M 167.5,459.5 C 238.74,508.727 309.74,558.394 380.5,608.5C 356.988,631.2 348.488,658.533 355,690.5C 293,647.167 231,603.833 169,560.5C 148.925,527.062 148.425,493.395 167.5,459.5 Z M 164.5,582.5 C 236.044,630.863 307.21,679.863 378,729.5C 378.667,730.167 378.667,730.833 378,731.5C 354.105,754.17 346.272,781.337 354.5,813C 351.701,812.268 349.034,810.934 346.5,809C 289.109,768.61 231.442,728.61 173.5,689C 153.178,664.396 147.011,636.563 155,605.5C 157.627,597.583 160.794,589.917 164.5,582.5 Z M 398.5,617.5 C 544.167,617.5 689.833,617.5 835.5,617.5C 824.412,651.891 825.079,686.057 837.5,720C 837.167,720.333 836.833,720.667 836.5,721C 727.834,721.5 619.167,721.667 510.5,721.5C 510.5,702.833 510.5,684.167 510.5,665.5C 481.167,665.5 451.833,665.5 422.5,665.5C 422.5,684.167 422.5,702.833 422.5,721.5C 414.493,721.666 406.493,721.5 398.5,721C 386.049,710.224 377.215,697.057 372,681.5C 368.865,664.566 372.531,649.233 383,635.5C 387.938,629.282 393.105,623.282 398.5,617.5 Z M 440.5,683.5 C 458.167,683.5 475.833,683.5 493.5,683.5C 493.833,712.841 493.5,742.174 492.5,771.5C 483.92,766.96 475.42,762.294 467,757.5C 458.493,762.421 449.826,767.088 441,771.5C 440.5,742.169 440.333,712.835 440.5,683.5 Z M 396.5,739.5 C 405.167,739.5 413.833,739.5 422.5,739.5C 422.5,759.833 422.5,780.167 422.5,800.5C 437.787,793.773 452.62,786.106 467,777.5C 481.333,785.5 495.667,793.5 510,801.5C 510.5,780.836 510.667,760.169 510.5,739.5C 618.167,739.5 725.833,739.5 833.5,739.5C 825.799,763.383 823.965,787.716 828,812.5C 830.034,822.967 832.534,833.301 835.5,843.5C 689.166,843.667 542.833,843.5 396.5,843C 380.736,829.303 371.403,812.137 368.5,791.5C 369.863,777.234 375.03,764.568 384,753.5C 388.003,748.665 392.17,743.998 396.5,739.5 Z"/></g>
<g><path style="opacity:0.928" fill="#4b7d47" d="M 143.5,891.5 C 169.845,887.374 181.345,898.374 178,924.5C 176.056,933.398 170.556,938.565 161.5,940C 132.654,944.822 121.154,932.989 127,904.5C 130.37,897.279 135.87,892.946 143.5,891.5 Z M 146.5,901.5 C 161.52,899.839 167.686,906.506 165,921.5C 163.31,928.183 158.976,931.516 152,931.5C 146.099,931.558 142.099,928.891 140,923.5C 136.68,914.309 138.847,906.976 146.5,901.5 Z"/></g>
<g><path style="opacity:0.912" fill="#4b7d47" d="M 759.5,891.5 C 767.626,890.853 775.293,892.353 782.5,896C 787.293,899.699 788.627,904.366 786.5,910C 783.167,910.667 779.833,910.667 776.5,910C 774.303,903.899 769.969,901.399 763.5,902.5C 760.076,902.482 756.743,902.982 753.5,904C 749.111,911.197 748.611,918.697 752,926.5C 752.903,927.701 754.069,928.535 755.5,929C 760.833,929.667 766.167,929.667 771.5,929C 774.426,927.493 776.426,925.159 777.5,922C 788.469,919.767 791.303,923.601 786,933.5C 779.899,938.894 772.733,941.227 764.5,940.5C 741.231,940.007 732.398,928.341 738,905.5C 742.177,896.166 749.344,891.499 759.5,891.5 Z"/></g>
<g><path style="opacity:0.927" fill="#4b7d47" d="M 812.5,891.5 C 842.638,888.45 853.472,901.45 845,930.5C 841.618,935.781 836.784,938.948 830.5,940C 800.95,943.788 789.784,931.288 797,902.5C 800.782,896.708 805.948,893.042 812.5,891.5 Z M 815.5,901.5 C 830.768,899.604 836.935,906.271 834,921.5C 832.31,928.183 827.976,931.516 821,931.5C 811.762,930.553 807.262,925.386 807.5,916C 807.483,909.523 810.149,904.689 815.5,901.5 Z"/></g>
<g><path style="opacity:0.891" fill="#4b7d47" d="M 1019.5,891.5 C 1032.04,890.546 1036.88,896.213 1034,908.5C 1026.24,916.745 1018.91,916.412 1012,907.5C 1010,899.832 1012.5,894.498 1019.5,891.5 Z M 1021.5,898.5 C 1024.54,898.379 1026.21,899.879 1026.5,903C 1023.99,909.048 1021.66,908.882 1019.5,902.5C 1020.18,901.14 1020.85,899.807 1021.5,898.5 Z"/></g>
<g><path style="opacity:0.937" fill="#4b7d47" d="M -0.5,937.5 C -0.5,923.167 -0.5,908.833 -0.5,894.5C 5.91294,892.272 12.5796,891.938 19.5,893.5C 23.285,902.684 26.785,912.017 30,921.5C 33.1973,912.908 36.1973,904.242 39,895.5C 39.8333,894.667 40.6667,893.833 41.5,893C 47.5276,892.17 53.5276,892.336 59.5,893.5C 60.8333,908.5 60.8333,923.5 59.5,938.5C 55.6197,939.795 51.7864,939.795 48,938.5C 47.6667,928.5 47.3333,918.5 47,908.5C 43.5301,918.577 39.8634,928.577 36,938.5C 32.2564,939.626 28.423,939.793 24.5,939C 20.2786,929.005 16.4453,918.839 13,908.5C 12.6667,918.5 12.3333,928.5 12,938.5C 7.59942,940.056 3.43275,939.723 -0.5,937.5 Z"/></g>
<g><path style="opacity:0.932" fill="#4b7d47" d="M 73.5,892.5 C 87.1707,892.333 100.837,892.5 114.5,893C 116.091,896.275 115.758,899.275 113.5,902C 104.173,902.5 94.8393,902.666 85.5,902.5C 85.5,904.833 85.5,907.167 85.5,909.5C 92.8409,909.334 100.174,909.5 107.5,910C 117.775,913.718 121.275,920.885 118,931.5C 115.876,935.313 112.709,937.813 108.5,939C 96.5046,939.5 84.5046,939.667 72.5,939.5C 71.3832,924.865 71.2165,910.199 72,895.5C 72.5133,894.473 73.0133,893.473 73.5,892.5 Z M 85.5,919.5 C 91.5092,919.334 97.5092,919.501 103.5,920C 106.167,923 106.167,926 103.5,929C 97.5092,929.499 91.5092,929.666 85.5,929.5C 85.5,926.167 85.5,922.833 85.5,919.5 Z"/></g>
<g><path style="opacity:0.927" fill="#4b7d47" d="M 183.5,892.5 C 187.514,892.334 191.514,892.501 195.5,893C 198.182,898.028 200.682,903.195 203,908.5C 206.397,911.474 210.23,912.474 214.5,911.5C 216.693,905.076 219.359,898.909 222.5,893C 226.423,892.207 230.256,892.374 234,893.5C 231.168,905.334 227.501,917.001 223,928.5C 220.744,933.757 216.91,937.257 211.5,939C 205.472,939.83 199.472,939.664 193.5,938.5C 192.167,935.833 192.167,933.167 193.5,930.5C 197.796,929.672 202.129,929.172 206.5,929C 208.543,927.292 210.21,925.292 211.5,923C 204.53,922.889 198.363,920.723 193,916.5C 187.956,909.192 184.789,901.192 183.5,892.5 Z"/></g>
<g><path style="opacity:0.93" fill="#4b7d47" d="M 269.5,892.5 C 273.182,892.335 276.848,892.501 280.5,893C 281.126,893.75 281.626,894.584 282,895.5C 282.5,906.828 282.667,918.162 282.5,929.5C 286.833,929.5 291.167,929.5 295.5,929.5C 295.333,917.495 295.5,905.495 296,893.5C 297.906,892.869 299.906,892.536 302,892.5C 304.302,892.6 306.302,893.267 308,894.5C 308.5,906.162 308.667,917.829 308.5,929.5C 312.833,929.5 317.167,929.5 321.5,929.5C 321.333,917.829 321.5,906.162 322,894.5C 323.698,893.267 325.698,892.6 328,892.5C 329.833,892.667 331.667,892.833 333.5,893C 334.126,893.75 334.626,894.584 335,895.5C 335.816,909.878 335.649,924.212 334.5,938.5C 312.833,939.833 291.167,939.833 269.5,938.5C 268.182,923.167 268.182,907.833 269.5,892.5 Z"/></g>
<g><path style="opacity:0.935" fill="#4b7d47" d="M 858.5,892.5 C 862.673,891.956 866.506,892.623 870,894.5C 870.5,906.162 870.667,917.829 870.5,929.5C 874.833,929.5 879.167,929.5 883.5,929.5C 883.333,917.495 883.5,905.495 884,893.5C 888,892.167 892,892.167 896,893.5C 896.5,905.495 896.667,917.495 896.5,929.5C 901.167,929.5 905.833,929.5 910.5,929.5C 910.178,917.253 910.512,905.086 911.5,893C 913.333,892.833 915.167,892.667 917,892.5C 919.302,892.6 921.302,893.267 923,894.5C 923.816,909.212 923.65,923.878 922.5,938.5C 900.833,939.833 879.167,939.833 857.5,938.5C 856.351,924.212 856.184,909.878 857,895.5C 857.513,894.473 858.013,893.473 858.5,892.5 Z"/></g>
<g><path style="opacity:0.943" fill="#4b7d47" d="M 962.5,892.5 C 967.511,892.334 972.511,892.501 977.5,893C 984.395,902.899 990.895,913.065 997,923.5C 997.333,913.5 997.667,903.5 998,893.5C 1001.41,892.378 1004.91,892.211 1008.5,893C 1009.66,908.092 1009.82,923.259 1009,938.5C 1003.58,939.639 998.084,939.806 992.5,939C 985.877,930.369 980.044,921.202 975,911.5C 974.667,920.167 974.333,928.833 974,937.5C 972.302,938.733 970.302,939.4 968,939.5C 966.167,939.167 964.333,938.833 962.5,938.5C 961.182,923.167 961.182,907.833 962.5,892.5 Z"/></g>
<g><path style="opacity:0.939" fill="#4b7d47" d="M 1048.5,892.5 C 1053,891.945 1057.16,892.611 1061,894.5C 1061.82,909.212 1061.65,923.878 1060.5,938.5C 1056.62,939.795 1052.79,939.795 1049,938.5C 1048.83,927.818 1048.33,917.151 1047.5,906.5C 1043.16,909.344 1040.16,908.177 1038.5,903C 1041.35,898.984 1044.68,895.484 1048.5,892.5 Z"/></g>
<g><path style="opacity:0.946" fill="#4b7d47" d="M 1118.5,922.5 C 1118.5,925.167 1118.5,927.833 1118.5,930.5C 1116.28,931.369 1113.95,931.702 1111.5,931.5C 1111.5,934.167 1111.5,936.833 1111.5,939.5C 1107.45,939.824 1103.45,939.491 1099.5,938.5C 1098.63,936.253 1098.29,933.92 1098.5,931.5C 1088.92,931.818 1079.42,931.485 1070,930.5C 1069.15,926.375 1069.48,922.375 1071,918.5C 1078.54,910.63 1085.71,902.463 1092.5,894C 1098.64,892.231 1104.8,892.064 1111,893.5C 1111.5,902.827 1111.67,912.161 1111.5,921.5C 1113.9,921.448 1116.24,921.781 1118.5,922.5 Z M 1097.5,905.5 C 1098.49,910.64 1098.82,915.974 1098.5,921.5C 1093.82,921.666 1089.15,921.499 1084.5,921C 1089.04,915.96 1093.38,910.794 1097.5,905.5 Z"/></g>
<g><path style="opacity:0.911" fill="#4b7d47" d="M 357.5,902.5 C 363.245,902.211 368.912,902.711 374.5,904C 376.96,905.458 379.127,907.291 381,909.5C 382.423,919.42 382.923,929.42 382.5,939.5C 378.327,940.044 374.494,939.377 371,937.5C 365.845,940.305 360.345,941.138 354.5,940C 345.572,937.991 342.405,932.491 345,923.5C 347.412,919.704 350.912,917.538 355.5,917C 360.5,916.667 365.5,916.333 370.5,916C 367.024,910.05 362.691,909.383 357.5,914C 353.909,914.789 350.409,914.622 347,913.5C 346.342,909.975 347.509,907.141 350.5,905C 353.004,904.302 355.337,903.469 357.5,902.5 Z M 358.5,925.5 C 362.5,925.5 366.5,925.5 370.5,925.5C 370.762,926.978 370.429,928.311 369.5,929.5C 365.42,932.581 361.253,932.914 357,930.5C 356.387,928.505 356.887,926.838 358.5,925.5 Z"/></g>
<g><path style="opacity:0.91" fill="#4b7d47" d="M 543.5,902.5 C 549.232,902.283 554.899,902.783 560.5,904C 566.245,906.172 568.579,910.172 567.5,916C 564.167,916.667 560.833,916.667 557.5,916C 554.972,911.859 551.305,910.526 546.5,912C 543.08,914.153 541.747,917.319 542.5,921.5C 542.017,930.108 546.017,933.275 554.5,931C 557.827,926.726 562.16,925.393 567.5,927C 568.395,934.797 564.729,939.131 556.5,940C 536.668,943.497 527.835,935.33 530,915.5C 531.793,908.205 536.293,903.871 543.5,902.5 Z"/></g>
<g><path style="opacity:0.902" fill="#4b7d47" d="M 631.5,902.5 C 640.02,901.05 647.52,903.05 654,908.5C 654.862,910.087 655.529,911.754 656,913.5C 656.667,921.833 656.667,930.167 656,938.5C 654.262,939.127 652.429,939.46 650.5,939.5C 648.359,939.387 646.525,938.72 645,937.5C 637.61,941.295 630.11,941.461 622.5,938C 616.333,932.329 616,926.329 621.5,920C 628.481,916.902 635.815,915.736 643.5,916.5C 643.14,912.642 640.973,910.642 637,910.5C 632.184,914.122 626.684,915.455 620.5,914.5C 620.683,907.317 624.349,903.317 631.5,902.5 Z M 631.5,925.5 C 635.5,925.5 639.5,925.5 643.5,925.5C 643.714,927.144 643.38,928.644 642.5,930C 638.621,932.454 634.787,932.621 631,930.5C 630.36,928.735 630.527,927.068 631.5,925.5 Z"/></g>
<g><path style="opacity:0.918" fill="#4b7d47" d="M 391.5,903.5 C 395.514,903.334 399.514,903.501 403.5,904C 406.037,906.906 408.204,910.073 410,913.5C 412.167,910.5 414.333,907.5 416.5,904.5C 420.765,903.561 425.098,903.228 429.5,903.5C 429.657,904.873 429.49,906.207 429,907.5C 425.638,912.03 422.471,916.697 419.5,921.5C 422.178,926.188 425.344,930.521 429,934.5C 430.009,936.025 430.509,937.692 430.5,939.5C 426.154,939.666 421.821,939.499 417.5,939C 415,935.833 412.5,932.667 410,929.5C 407.5,932.667 405,935.833 402.5,939C 398.5,939.667 394.5,939.667 390.5,939C 389.549,938.282 389.383,937.449 390,936.5C 393.642,931.358 397.475,926.358 401.5,921.5C 398.333,917.167 395.167,912.833 392,908.5C 391.506,906.866 391.34,905.199 391.5,903.5 Z"/></g>
<g><path style="opacity:0.913" fill="#4b7d47" d="M 457.5,951.5 C 453.167,951.5 448.833,951.5 444.5,951.5C 441.67,949.638 440.837,946.971 442,943.5C 445.076,942.712 448.242,942.212 451.5,942C 453.032,941.3 454.032,940.134 454.5,938.5C 450.514,937.077 447.014,934.744 444,931.5C 439.77,922.81 436.77,913.81 435,904.5C 438.786,903.205 442.62,903.205 446.5,904.5C 448.762,910.785 450.928,917.118 453,923.5C 453.845,926.412 455.512,927.412 458,926.5C 459.974,918.745 462.474,911.245 465.5,904C 469.152,903.501 472.818,903.335 476.5,903.5C 473.237,918.552 468.737,933.219 463,947.5C 461.188,948.977 459.355,950.31 457.5,951.5 Z"/></g>
<g><path style="opacity:0.923" fill="#4b7d47" d="M 483.5,903.5 C 487.5,903.5 491.5,903.5 495.5,903.5C 495.5,907.833 495.5,912.167 495.5,916.5C 499.833,916.5 504.167,916.5 508.5,916.5C 508.334,912.486 508.501,908.486 509,904.5C 512.786,903.205 516.62,903.205 520.5,904.5C 521.825,916.03 521.825,927.53 520.5,939C 516.577,939.793 512.744,939.626 509,938.5C 508.501,934.179 508.334,929.846 508.5,925.5C 504.167,925.5 499.833,925.5 495.5,925.5C 495.5,930.167 495.5,934.833 495.5,939.5C 491.5,939.5 487.5,939.5 483.5,939.5C 483.5,927.5 483.5,915.5 483.5,903.5 Z"/></g>
<g><path style="opacity:0.937" fill="#4b7d47" d="M 576.5,903.5 C 580.437,903.207 584.27,903.54 588,904.5C 588.172,908.871 588.672,913.204 589.5,917.5C 591.753,916.747 593.587,915.414 595,913.5C 596.281,909.963 598.114,906.796 600.5,904C 604.152,903.501 607.818,903.335 611.5,903.5C 610.395,910.501 607.395,916.501 602.5,921.5C 606.914,926.656 610.581,932.323 613.5,938.5C 609.541,939.66 605.541,939.827 601.5,939C 598.943,936.108 596.776,932.941 595,929.5C 593.468,927.438 591.468,926.104 589,925.5C 588.667,929.833 588.333,934.167 588,938.5C 584.27,939.46 580.437,939.793 576.5,939.5C 576.5,927.5 576.5,915.5 576.5,903.5 Z"/></g>
<g><path style="opacity:0.939" fill="#4b7d47" d="M 673.5,903.5 C 682.833,903.5 692.167,903.5 701.5,903.5C 701.5,915.5 701.5,927.5 701.5,939.5C 697.5,939.5 693.5,939.5 689.5,939.5C 689.5,935.5 689.5,931.5 689.5,927.5C 687.396,927.201 685.396,927.534 683.5,928.5C 681.539,932.258 679.205,935.758 676.5,939C 672.309,939.922 668.309,939.588 664.5,938C 666.581,933.836 668.914,929.836 671.5,926C 665.439,921.924 663.605,916.424 666,909.5C 667.707,906.41 670.207,904.41 673.5,903.5 Z M 679.5,911.5 C 682.833,911.5 686.167,911.5 689.5,911.5C 689.5,913.833 689.5,916.167 689.5,918.5C 685.818,918.665 682.152,918.499 678.5,918C 677.144,915.586 677.478,913.419 679.5,911.5 Z"/></g>
<g><path style="opacity:0.874" fill="#4b7d47" d="M 1013.5,915.5 C 1019.84,915.334 1026.18,915.5 1032.5,916C 1033.6,918.401 1033.77,920.901 1033,923.5C 1026.92,924.642 1020.75,924.809 1014.5,924C 1012.26,921.415 1011.93,918.582 1013.5,915.5 Z"/></g>
</svg>
